<?xml version="1.0" encoding="UTF-8" standalone="no"?>
<!-- This is a Stata 19.0 generated SVG file (http://www.stata.com) -->

<svg version="1.1" width="7.500in" height="4.500in" viewBox="0 0 5400 3240" xmlns="http://www.w3.org/2000/svg" xmlns:xlink="http://www.w3.org/1999/xlink">
	<desc>Stata Graph - Graph</desc>
	<rect x="0" y="0" width="5400" height="3240" style="fill:#FFFFFF;stroke:none"/>
	<rect x="0.00" y="0.00" width="5400.00" height="3240.00" style="fill:#FFFFFF"/>
	<rect x="3.24" y="3.24" width="5393.52" height="3233.52" style="fill:none;stroke:#FFFFFF;stroke-width:6.48"/>
	<rect x="576.45" y="113.40" width="3417.69" height="2833.14" style="fill:#FFFFFF"/>
	<rect x="579.69" y="116.64" width="3411.21" height="2826.66" style="fill:none;stroke:#FFFFFF;stroke-width:6.48"/>
	<line x1="576.45" y1="2946.54" x2="641.25" y2="2946.54" style="stroke:#F0F0F0;stroke-width:9.72"/>
	<line x1="673.65" y1="2946.54" x2="738.45" y2="2946.54" style="stroke:#F0F0F0;stroke-width:9.72"/>
	<line x1="770.85" y1="2946.54" x2="835.65" y2="2946.54" style="stroke:#F0F0F0;stroke-width:9.72"/>
	<line x1="868.05" y1="2946.54" x2="932.85" y2="2946.54" style="stroke:#F0F0F0;stroke-width:9.72"/>
	<line x1="965.25" y1="2946.54" x2="1030.05" y2="2946.54" style="stroke:#F0F0F0;stroke-width:9.72"/>
	<line x1="1062.45" y1="2946.54" x2="1127.25" y2="2946.54" style="stroke:#F0F0F0;stroke-width:9.72"/>
	<line x1="1159.65" y1="2946.54" x2="1224.45" y2="2946.54" style="stroke:#F0F0F0;stroke-width:9.72"/>
	<line x1="1256.85" y1="2946.54" x2="1321.65" y2="2946.54" style="stroke:#F0F0F0;stroke-width:9.72"/>
	<line x1="1354.05" y1="2946.54" x2="1418.85" y2="2946.54" style="stroke:#F0F0F0;stroke-width:9.72"/>
	<line x1="1451.25" y1="2946.54" x2="1516.05" y2="2946.54" style="stroke:#F0F0F0;stroke-width:9.72"/>
	<line x1="1548.45" y1="2946.54" x2="1613.25" y2="2946.54" style="stroke:#F0F0F0;stroke-width:9.72"/>
	<line x1="1645.65" y1="2946.54" x2="1710.45" y2="2946.54" style="stroke:#F0F0F0;stroke-width:9.72"/>
	<line x1="1742.85" y1="2946.54" x2="1807.65" y2="2946.54" style="stroke:#F0F0F0;stroke-width:9.72"/>
	<line x1="1840.05" y1="2946.54" x2="1904.85" y2="2946.54" style="stroke:#F0F0F0;stroke-width:9.72"/>
	<line x1="1937.25" y1="2946.54" x2="2002.05" y2="2946.54" style="stroke:#F0F0F0;stroke-width:9.72"/>
	<line x1="2034.45" y1="2946.54" x2="2099.25" y2="2946.54" style="stroke:#F0F0F0;stroke-width:9.72"/>
	<line x1="2131.65" y1="2946.54" x2="2196.45" y2="2946.54" style="stroke:#F0F0F0;stroke-width:9.72"/>
	<line x1="2228.85" y1="2946.54" x2="2293.65" y2="2946.54" style="stroke:#F0F0F0;stroke-width:9.72"/>
	<line x1="2326.05" y1="2946.54" x2="2390.85" y2="2946.54" style="stroke:#F0F0F0;stroke-width:9.72"/>
	<line x1="2423.25" y1="2946.54" x2="2488.05" y2="2946.54" style="stroke:#F0F0F0;stroke-width:9.72"/>
	<line x1="2520.45" y1="2946.54" x2="2585.25" y2="2946.54" style="stroke:#F0F0F0;stroke-width:9.72"/>
	<line x1="2617.65" y1="2946.54" x2="2682.45" y2="2946.54" style="stroke:#F0F0F0;stroke-width:9.72"/>
	<line x1="2714.85" y1="2946.54" x2="2779.65" y2="2946.54" style="stroke:#F0F0F0;stroke-width:9.72"/>
	<line x1="2812.05" y1="2946.54" x2="2876.85" y2="2946.54" style="stroke:#F0F0F0;stroke-width:9.72"/>
	<line x1="2909.25" y1="2946.54" x2="2974.05" y2="2946.54" style="stroke:#F0F0F0;stroke-width:9.72"/>
	<line x1="3006.45" y1="2946.54" x2="3071.25" y2="2946.54" style="stroke:#F0F0F0;stroke-width:9.72"/>
	<line x1="3103.65" y1="2946.54" x2="3168.45" y2="2946.54" style="stroke:#F0F0F0;stroke-width:9.72"/>
	<line x1="3200.85" y1="2946.54" x2="3265.65" y2="2946.54" style="stroke:#F0F0F0;stroke-width:9.72"/>
	<line x1="3298.05" y1="2946.54" x2="3362.85" y2="2946.54" style="stroke:#F0F0F0;stroke-width:9.72"/>
	<line x1="3395.25" y1="2946.54" x2="3460.05" y2="2946.54" style="stroke:#F0F0F0;stroke-width:9.72"/>
	<line x1="3492.45" y1="2946.54" x2="3557.25" y2="2946.54" style="stroke:#F0F0F0;stroke-width:9.72"/>
	<line x1="3589.65" y1="2946.54" x2="3654.45" y2="2946.54" style="stroke:#F0F0F0;stroke-width:9.72"/>
	<line x1="3686.85" y1="2946.54" x2="3751.65" y2="2946.54" style="stroke:#F0F0F0;stroke-width:9.72"/>
	<line x1="3784.05" y1="2946.54" x2="3848.85" y2="2946.54" style="stroke:#F0F0F0;stroke-width:9.72"/>
	<line x1="3881.25" y1="2946.54" x2="3946.05" y2="2946.54" style="stroke:#F0F0F0;stroke-width:9.72"/>
	<line x1="3978.45" y1="2946.54" x2="3994.14" y2="2946.54" style="stroke:#F0F0F0;stroke-width:9.72"/>
	<line x1="576.45" y1="2094.69" x2="641.25" y2="2094.69" style="stroke:#F0F0F0;stroke-width:9.72"/>
	<line x1="673.65" y1="2094.69" x2="738.45" y2="2094.69" style="stroke:#F0F0F0;stroke-width:9.72"/>
	<line x1="770.85" y1="2094.69" x2="835.65" y2="2094.69" style="stroke:#F0F0F0;stroke-width:9.72"/>
	<line x1="868.05" y1="2094.69" x2="932.85" y2="2094.69" style="stroke:#F0F0F0;stroke-width:9.72"/>
	<line x1="965.25" y1="2094.69" x2="1030.05" y2="2094.69" style="stroke:#F0F0F0;stroke-width:9.72"/>
	<line x1="1062.45" y1="2094.69" x2="1127.25" y2="2094.69" style="stroke:#F0F0F0;stroke-width:9.72"/>
	<line x1="1159.65" y1="2094.69" x2="1224.45" y2="2094.69" style="stroke:#F0F0F0;stroke-width:9.72"/>
	<line x1="1256.85" y1="2094.69" x2="1321.65" y2="2094.69" style="stroke:#F0F0F0;stroke-width:9.72"/>
	<line x1="1354.05" y1="2094.69" x2="1418.85" y2="2094.69" style="stroke:#F0F0F0;stroke-width:9.72"/>
	<line x1="1451.25" y1="2094.69" x2="1516.05" y2="2094.69" style="stroke:#F0F0F0;stroke-width:9.72"/>
	<line x1="1548.45" y1="2094.69" x2="1613.25" y2="2094.69" style="stroke:#F0F0F0;stroke-width:9.72"/>
	<line x1="1645.65" y1="2094.69" x2="1710.45" y2="2094.69" style="stroke:#F0F0F0;stroke-width:9.72"/>
	<line x1="1742.85" y1="2094.69" x2="1807.65" y2="2094.69" style="stroke:#F0F0F0;stroke-width:9.72"/>
	<line x1="1840.05" y1="2094.69" x2="1904.85" y2="2094.69" style="stroke:#F0F0F0;stroke-width:9.72"/>
	<line x1="1937.25" y1="2094.69" x2="2002.05" y2="2094.69" style="stroke:#F0F0F0;stroke-width:9.72"/>
	<line x1="2034.45" y1="2094.69" x2="2099.25" y2="2094.69" style="stroke:#F0F0F0;stroke-width:9.72"/>
	<line x1="2131.65" y1="2094.69" x2="2196.45" y2="2094.69" style="stroke:#F0F0F0;stroke-width:9.72"/>
	<line x1="2228.85" y1="2094.69" x2="2293.65" y2="2094.69" style="stroke:#F0F0F0;stroke-width:9.72"/>
	<line x1="2326.05" y1="2094.69" x2="2390.85" y2="2094.69" style="stroke:#F0F0F0;stroke-width:9.72"/>
	<line x1="2423.25" y1="2094.69" x2="2488.05" y2="2094.69" style="stroke:#F0F0F0;stroke-width:9.72"/>
	<line x1="2520.45" y1="2094.69" x2="2585.25" y2="2094.69" style="stroke:#F0F0F0;stroke-width:9.72"/>
	<line x1="2617.65" y1="2094.69" x2="2682.45" y2="2094.69" style="stroke:#F0F0F0;stroke-width:9.72"/>
	<line x1="2714.85" y1="2094.69" x2="2779.65" y2="2094.69" style="stroke:#F0F0F0;stroke-width:9.72"/>
	<line x1="2812.05" y1="2094.69" x2="2876.85" y2="2094.69" style="stroke:#F0F0F0;stroke-width:9.72"/>
	<line x1="2909.25" y1="2094.69" x2="2974.05" y2="2094.69" style="stroke:#F0F0F0;stroke-width:9.72"/>
	<line x1="3006.45" y1="2094.69" x2="3071.25" y2="2094.69" style="stroke:#F0F0F0;stroke-width:9.72"/>
	<line x1="3103.65" y1="2094.69" x2="3168.45" y2="2094.69" style="stroke:#F0F0F0;stroke-width:9.72"/>
	<line x1="3200.85" y1="2094.69" x2="3265.65" y2="2094.69" style="stroke:#F0F0F0;stroke-width:9.72"/>
	<line x1="3298.05" y1="2094.69" x2="3362.85" y2="2094.69" style="stroke:#F0F0F0;stroke-width:9.72"/>
	<line x1="3395.25" y1="2094.69" x2="3460.05" y2="2094.69" style="stroke:#F0F0F0;stroke-width:9.72"/>
	<line x1="3492.45" y1="2094.69" x2="3557.25" y2="2094.69" style="stroke:#F0F0F0;stroke-width:9.72"/>
	<line x1="3589.65" y1="2094.69" x2="3654.45" y2="2094.69" style="stroke:#F0F0F0;stroke-width:9.72"/>
	<line x1="3686.85" y1="2094.69" x2="3751.65" y2="2094.69" style="stroke:#F0F0F0;stroke-width:9.72"/>
	<line x1="3784.05" y1="2094.69" x2="3848.85" y2="2094.69" style="stroke:#F0F0F0;stroke-width:9.72"/>
	<line x1="3881.25" y1="2094.69" x2="3946.05" y2="2094.69" style="stroke:#F0F0F0;stroke-width:9.72"/>
	<line x1="3978.45" y1="2094.69" x2="3994.14" y2="2094.69" style="stroke:#F0F0F0;stroke-width:9.72"/>
	<line x1="576.45" y1="1242.68" x2="641.25" y2="1242.68" style="stroke:#F0F0F0;stroke-width:9.72"/>
	<line x1="673.65" y1="1242.68" x2="738.45" y2="1242.68" style="stroke:#F0F0F0;stroke-width:9.72"/>
	<line x1="770.85" y1="1242.68" x2="835.65" y2="1242.68" style="stroke:#F0F0F0;stroke-width:9.72"/>
	<line x1="868.05" y1="1242.68" x2="932.85" y2="1242.68" style="stroke:#F0F0F0;stroke-width:9.72"/>
	<line x1="965.25" y1="1242.68" x2="1030.05" y2="1242.68" style="stroke:#F0F0F0;stroke-width:9.72"/>
	<line x1="1062.45" y1="1242.68" x2="1127.25" y2="1242.68" style="stroke:#F0F0F0;stroke-width:9.72"/>
	<line x1="1159.65" y1="1242.68" x2="1224.45" y2="1242.68" style="stroke:#F0F0F0;stroke-width:9.72"/>
	<line x1="1256.85" y1="1242.68" x2="1321.65" y2="1242.68" style="stroke:#F0F0F0;stroke-width:9.72"/>
	<line x1="1354.05" y1="1242.68" x2="1418.85" y2="1242.68" style="stroke:#F0F0F0;stroke-width:9.72"/>
	<line x1="1451.25" y1="1242.68" x2="1516.05" y2="1242.68" style="stroke:#F0F0F0;stroke-width:9.72"/>
	<line x1="1548.45" y1="1242.68" x2="1613.25" y2="1242.68" style="stroke:#F0F0F0;stroke-width:9.72"/>
	<line x1="1645.65" y1="1242.68" x2="1710.45" y2="1242.68" style="stroke:#F0F0F0;stroke-width:9.72"/>
	<line x1="1742.85" y1="1242.68" x2="1807.65" y2="1242.68" style="stroke:#F0F0F0;stroke-width:9.72"/>
	<line x1="1840.05" y1="1242.68" x2="1904.85" y2="1242.68" style="stroke:#F0F0F0;stroke-width:9.72"/>
	<line x1="1937.25" y1="1242.68" x2="2002.05" y2="1242.68" style="stroke:#F0F0F0;stroke-width:9.72"/>
	<line x1="2034.45" y1="1242.68" x2="2099.25" y2="1242.68" style="stroke:#F0F0F0;stroke-width:9.72"/>
	<line x1="2131.65" y1="1242.68" x2="2196.45" y2="1242.68" style="stroke:#F0F0F0;stroke-width:9.72"/>
	<line x1="2228.85" y1="1242.68" x2="2293.65" y2="1242.68" style="stroke:#F0F0F0;stroke-width:9.72"/>
	<line x1="2326.05" y1="1242.68" x2="2390.85" y2="1242.68" style="stroke:#F0F0F0;stroke-width:9.72"/>
	<line x1="2423.25" y1="1242.68" x2="2488.05" y2="1242.68" style="stroke:#F0F0F0;stroke-width:9.72"/>
	<line x1="2520.45" y1="1242.68" x2="2585.25" y2="1242.68" style="stroke:#F0F0F0;stroke-width:9.72"/>
	<line x1="2617.65" y1="1242.68" x2="2682.45" y2="1242.68" style="stroke:#F0F0F0;stroke-width:9.72"/>
	<line x1="2714.85" y1="1242.68" x2="2779.65" y2="1242.68" style="stroke:#F0F0F0;stroke-width:9.72"/>
	<line x1="2812.05" y1="1242.68" x2="2876.85" y2="1242.68" style="stroke:#F0F0F0;stroke-width:9.72"/>
	<line x1="2909.25" y1="1242.68" x2="2974.05" y2="1242.68" style="stroke:#F0F0F0;stroke-width:9.72"/>
	<line x1="3006.45" y1="1242.68" x2="3071.25" y2="1242.68" style="stroke:#F0F0F0;stroke-width:9.72"/>
	<line x1="3103.65" y1="1242.68" x2="3168.45" y2="1242.68" style="stroke:#F0F0F0;stroke-width:9.72"/>
	<line x1="3200.85" y1="1242.68" x2="3265.65" y2="1242.68" style="stroke:#F0F0F0;stroke-width:9.72"/>
	<line x1="3298.05" y1="1242.68" x2="3362.85" y2="1242.68" style="stroke:#F0F0F0;stroke-width:9.72"/>
	<line x1="3395.25" y1="1242.68" x2="3460.05" y2="1242.68" style="stroke:#F0F0F0;stroke-width:9.72"/>
	<line x1="3492.45" y1="1242.68" x2="3557.25" y2="1242.68" style="stroke:#F0F0F0;stroke-width:9.72"/>
	<line x1="3589.65" y1="1242.68" x2="3654.45" y2="1242.68" style="stroke:#F0F0F0;stroke-width:9.72"/>
	<line x1="3686.85" y1="1242.68" x2="3751.65" y2="1242.68" style="stroke:#F0F0F0;stroke-width:9.72"/>
	<line x1="3784.05" y1="1242.68" x2="3848.85" y2="1242.68" style="stroke:#F0F0F0;stroke-width:9.72"/>
	<line x1="3881.25" y1="1242.68" x2="3946.05" y2="1242.68" style="stroke:#F0F0F0;stroke-width:9.72"/>
	<line x1="3978.45" y1="1242.68" x2="3994.14" y2="1242.68" style="stroke:#F0F0F0;stroke-width:9.72"/>
	<line x1="576.45" y1="390.66" x2="641.25" y2="390.66" style="stroke:#F0F0F0;stroke-width:9.72"/>
	<line x1="673.65" y1="390.66" x2="738.45" y2="390.66" style="stroke:#F0F0F0;stroke-width:9.72"/>
	<line x1="770.85" y1="390.66" x2="835.65" y2="390.66" style="stroke:#F0F0F0;stroke-width:9.72"/>
	<line x1="868.05" y1="390.66" x2="932.85" y2="390.66" style="stroke:#F0F0F0;stroke-width:9.72"/>
	<line x1="965.25" y1="390.66" x2="1030.05" y2="390.66" style="stroke:#F0F0F0;stroke-width:9.72"/>
	<line x1="1062.45" y1="390.66" x2="1127.25" y2="390.66" style="stroke:#F0F0F0;stroke-width:9.72"/>
	<line x1="1159.65" y1="390.66" x2="1224.45" y2="390.66" style="stroke:#F0F0F0;stroke-width:9.72"/>
	<line x1="1256.85" y1="390.66" x2="1321.65" y2="390.66" style="stroke:#F0F0F0;stroke-width:9.72"/>
	<line x1="1354.05" y1="390.66" x2="1418.85" y2="390.66" style="stroke:#F0F0F0;stroke-width:9.72"/>
	<line x1="1451.25" y1="390.66" x2="1516.05" y2="390.66" style="stroke:#F0F0F0;stroke-width:9.72"/>
	<line x1="1548.45" y1="390.66" x2="1613.25" y2="390.66" style="stroke:#F0F0F0;stroke-width:9.72"/>
	<line x1="1645.65" y1="390.66" x2="1710.45" y2="390.66" style="stroke:#F0F0F0;stroke-width:9.72"/>
	<line x1="1742.85" y1="390.66" x2="1807.65" y2="390.66" style="stroke:#F0F0F0;stroke-width:9.72"/>
	<line x1="1840.05" y1="390.66" x2="1904.85" y2="390.66" style="stroke:#F0F0F0;stroke-width:9.72"/>
	<line x1="1937.25" y1="390.66" x2="2002.05" y2="390.66" style="stroke:#F0F0F0;stroke-width:9.72"/>
	<line x1="2034.45" y1="390.66" x2="2099.25" y2="390.66" style="stroke:#F0F0F0;stroke-width:9.72"/>
	<line x1="2131.65" y1="390.66" x2="2196.45" y2="390.66" style="stroke:#F0F0F0;stroke-width:9.72"/>
	<line x1="2228.85" y1="390.66" x2="2293.65" y2="390.66" style="stroke:#F0F0F0;stroke-width:9.72"/>
	<line x1="2326.05" y1="390.66" x2="2390.85" y2="390.66" style="stroke:#F0F0F0;stroke-width:9.72"/>
	<line x1="2423.25" y1="390.66" x2="2488.05" y2="390.66" style="stroke:#F0F0F0;stroke-width:9.72"/>
	<line x1="2520.45" y1="390.66" x2="2585.25" y2="390.66" style="stroke:#F0F0F0;stroke-width:9.72"/>
	<line x1="2617.65" y1="390.66" x2="2682.45" y2="390.66" style="stroke:#F0F0F0;stroke-width:9.72"/>
	<line x1="2714.85" y1="390.66" x2="2779.65" y2="390.66" style="stroke:#F0F0F0;stroke-width:9.72"/>
	<line x1="2812.05" y1="390.66" x2="2876.85" y2="390.66" style="stroke:#F0F0F0;stroke-width:9.72"/>
	<line x1="2909.25" y1="390.66" x2="2974.05" y2="390.66" style="stroke:#F0F0F0;stroke-width:9.72"/>
	<line x1="3006.45" y1="390.66" x2="3071.25" y2="390.66" style="stroke:#F0F0F0;stroke-width:9.72"/>
	<line x1="3103.65" y1="390.66" x2="3168.45" y2="390.66" style="stroke:#F0F0F0;stroke-width:9.72"/>
	<line x1="3200.85" y1="390.66" x2="3265.65" y2="390.66" style="stroke:#F0F0F0;stroke-width:9.72"/>
	<line x1="3298.05" y1="390.66" x2="3362.85" y2="390.66" style="stroke:#F0F0F0;stroke-width:9.72"/>
	<line x1="3395.25" y1="390.66" x2="3460.05" y2="390.66" style="stroke:#F0F0F0;stroke-width:9.72"/>
	<line x1="3492.45" y1="390.66" x2="3557.25" y2="390.66" style="stroke:#F0F0F0;stroke-width:9.72"/>
	<line x1="3589.65" y1="390.66" x2="3654.45" y2="390.66" style="stroke:#F0F0F0;stroke-width:9.72"/>
	<line x1="3686.85" y1="390.66" x2="3751.65" y2="390.66" style="stroke:#F0F0F0;stroke-width:9.72"/>
	<line x1="3784.05" y1="390.66" x2="3848.85" y2="390.66" style="stroke:#F0F0F0;stroke-width:9.72"/>
	<line x1="3881.25" y1="390.66" x2="3946.05" y2="390.66" style="stroke:#F0F0F0;stroke-width:9.72"/>
	<line x1="3978.45" y1="390.66" x2="3994.14" y2="390.66" style="stroke:#F0F0F0;stroke-width:9.72"/>
	<rect x="780.13" y="359.78" width="451.41" height="2586.77" style="fill:#1A85FF"/>
	<rect x="783.37" y="363.02" width="444.93" height="2580.29" style="fill:none;stroke:#1A85FF;stroke-width:6.48"/>
	<rect x="1231.54" y="1533.60" width="451.24" height="1412.94" style="fill:#D41159"/>
	<rect x="1234.78" y="1536.84" width="444.76" height="1406.46" style="fill:none;stroke:#D41159;stroke-width:6.48"/>
	<rect x="1682.78" y="2863.01" width="451.41" height="83.53" style="fill:#00BF7F"/>
	<rect x="1686.02" y="2866.25" width="444.93" height="77.05" style="fill:none;stroke:#00BF7F;stroke-width:6.48"/>
	<rect x="2436.58" y="226.80" width="451.24" height="2719.74" style="fill:#1A85FF"/>
	<rect x="2439.82" y="230.04" width="444.76" height="2713.26" style="fill:none;stroke:#1A85FF;stroke-width:6.48"/>
	<rect x="2887.82" y="1960.03" width="451.41" height="986.51" style="fill:#D41159"/>
	<rect x="2891.06" y="1963.27" width="444.93" height="980.03" style="fill:none;stroke:#D41159;stroke-width:6.48"/>
	<rect x="3339.23" y="2874.83" width="451.24" height="71.72" style="fill:#00BF7F"/>
	<rect x="3342.46" y="2878.06" width="444.76" height="65.24" style="fill:none;stroke:#00BF7F;stroke-width:6.48"/>
	<line x1="576.45" y1="2946.54" x2="576.45" y2="113.40" style="stroke:#000000;stroke-width:6.48"/>
	<line x1="576.45" y1="2946.54" x2="531.56" y2="2946.54" style="stroke:#000000;stroke-width:6.48"/>
	<text x="508.95" y="2985.98" style="font-family:'Helvetica';font-size:112.56px;fill:#000000" text-anchor="end">0</text>
	<line x1="576.45" y1="2094.69" x2="531.56" y2="2094.69" style="stroke:#000000;stroke-width:6.48"/>
	<text x="508.95" y="2134.13" style="font-family:'Helvetica';font-size:112.56px;fill:#000000" text-anchor="end">2,000</text>
	<line x1="576.45" y1="1242.68" x2="531.56" y2="1242.68" style="stroke:#000000;stroke-width:6.48"/>
	<text x="508.95" y="1282.11" style="font-family:'Helvetica';font-size:112.56px;fill:#000000" text-anchor="end">4,000</text>
	<line x1="576.45" y1="390.66" x2="531.56" y2="390.66" style="stroke:#000000;stroke-width:6.48"/>
	<text x="508.95" y="430.09" style="font-family:'Helvetica';font-size:112.56px;fill:#000000" text-anchor="end">6,000</text>
	<line x1="576.45" y1="2946.54" x2="3994.14" y2="2946.54" style="stroke:#000000;stroke-width:6.48"/>
	<text x="1457.16" y="3070.31" style="font-family:'Helvetica';font-size:112.56px;fill:#000000" text-anchor="middle">Domestic</text>
	<text x="3113.44" y="3070.31" style="font-family:'Helvetica';font-size:112.56px;fill:#000000" text-anchor="middle">Foreign</text>
	<rect x="4033.13" y="1267.65" width="1214.66" height="524.64" style="fill:#FFFFFF"/>
	<rect x="4036.37" y="1270.89" width="1208.18" height="518.16" style="fill:none;stroke:#FFFFFF;stroke-width:6.48"/>
	<rect x="4081.73" y="1316.25" width="259.20" height="112.56" style="fill:#1A85FF"/>
	<rect x="4084.96" y="1319.49" width="252.72" height="106.08" style="fill:none;stroke:#1A85FF;stroke-width:6.48"/>
	<rect x="4081.73" y="1473.69" width="259.20" height="112.56" style="fill:#D41159"/>
	<rect x="4084.96" y="1476.93" width="252.72" height="106.08" style="fill:none;stroke:#D41159;stroke-width:6.48"/>
	<rect x="4081.73" y="1631.31" width="259.20" height="112.39" style="fill:#00BF7F"/>
	<rect x="4084.96" y="1634.55" width="252.72" height="105.91" style="fill:none;stroke:#00BF7F;stroke-width:6.48"/>
	<text x="4408.43" y="1411.88" style="font-family:'Helvetica';font-size:112.56px;fill:#000000">mean of price</text>
	<text x="4408.43" y="1569.49" style="font-family:'Helvetica';font-size:112.56px;fill:#000000">mean of weight</text>
	<text x="4408.43" y="1726.94" style="font-family:'Helvetica';font-size:112.56px;fill:#000000">mean of length</text>
</svg>
