<?xml version="1.0" encoding="UTF-8" standalone="no"?>
<!-- This is a Stata 19.0 generated SVG file (http://www.stata.com) -->

<svg version="1.1" width="7.500in" height="4.500in" viewBox="0 0 5400 3240" xmlns="http://www.w3.org/2000/svg" xmlns:xlink="http://www.w3.org/1999/xlink">
	<desc>Stata Graph - Graph</desc>
	<rect x="0" y="0" width="5400" height="3240" style="fill:#FFFFFF;stroke:none"/>
	<rect x="0.00" y="0.00" width="5400.00" height="3240.00" style="fill:#FFFFFF"/>
	<rect x="3.24" y="3.24" width="5393.52" height="3233.52" style="fill:none;stroke:#FFFFFF;stroke-width:6.48"/>
	<rect x="576.45" y="113.40" width="3716.38" height="2833.14" style="fill:#FFFFFF"/>
	<rect x="579.69" y="116.64" width="3709.90" height="2826.66" style="fill:none;stroke:#FFFFFF;stroke-width:6.48"/>
	<line x1="576.45" y1="2946.54" x2="641.25" y2="2946.54" style="stroke:#F0F0F0;stroke-width:9.72"/>
	<line x1="673.65" y1="2946.54" x2="738.45" y2="2946.54" style="stroke:#F0F0F0;stroke-width:9.72"/>
	<line x1="770.85" y1="2946.54" x2="835.65" y2="2946.54" style="stroke:#F0F0F0;stroke-width:9.72"/>
	<line x1="868.05" y1="2946.54" x2="932.85" y2="2946.54" style="stroke:#F0F0F0;stroke-width:9.72"/>
	<line x1="965.25" y1="2946.54" x2="1030.05" y2="2946.54" style="stroke:#F0F0F0;stroke-width:9.72"/>
	<line x1="1062.45" y1="2946.54" x2="1127.25" y2="2946.54" style="stroke:#F0F0F0;stroke-width:9.72"/>
	<line x1="1159.65" y1="2946.54" x2="1224.45" y2="2946.54" style="stroke:#F0F0F0;stroke-width:9.72"/>
	<line x1="1256.85" y1="2946.54" x2="1321.65" y2="2946.54" style="stroke:#F0F0F0;stroke-width:9.72"/>
	<line x1="1354.05" y1="2946.54" x2="1418.85" y2="2946.54" style="stroke:#F0F0F0;stroke-width:9.72"/>
	<line x1="1451.25" y1="2946.54" x2="1516.05" y2="2946.54" style="stroke:#F0F0F0;stroke-width:9.72"/>
	<line x1="1548.45" y1="2946.54" x2="1613.25" y2="2946.54" style="stroke:#F0F0F0;stroke-width:9.72"/>
	<line x1="1645.65" y1="2946.54" x2="1710.45" y2="2946.54" style="stroke:#F0F0F0;stroke-width:9.72"/>
	<line x1="1742.85" y1="2946.54" x2="1807.65" y2="2946.54" style="stroke:#F0F0F0;stroke-width:9.72"/>
	<line x1="1840.05" y1="2946.54" x2="1904.85" y2="2946.54" style="stroke:#F0F0F0;stroke-width:9.72"/>
	<line x1="1937.25" y1="2946.54" x2="2002.05" y2="2946.54" style="stroke:#F0F0F0;stroke-width:9.72"/>
	<line x1="2034.45" y1="2946.54" x2="2099.25" y2="2946.54" style="stroke:#F0F0F0;stroke-width:9.72"/>
	<line x1="2131.65" y1="2946.54" x2="2196.45" y2="2946.54" style="stroke:#F0F0F0;stroke-width:9.72"/>
	<line x1="2228.85" y1="2946.54" x2="2293.65" y2="2946.54" style="stroke:#F0F0F0;stroke-width:9.72"/>
	<line x1="2326.05" y1="2946.54" x2="2390.85" y2="2946.54" style="stroke:#F0F0F0;stroke-width:9.72"/>
	<line x1="2423.25" y1="2946.54" x2="2488.05" y2="2946.54" style="stroke:#F0F0F0;stroke-width:9.72"/>
	<line x1="2520.45" y1="2946.54" x2="2585.25" y2="2946.54" style="stroke:#F0F0F0;stroke-width:9.72"/>
	<line x1="2617.65" y1="2946.54" x2="2682.45" y2="2946.54" style="stroke:#F0F0F0;stroke-width:9.72"/>
	<line x1="2714.85" y1="2946.54" x2="2779.65" y2="2946.54" style="stroke:#F0F0F0;stroke-width:9.72"/>
	<line x1="2812.05" y1="2946.54" x2="2876.85" y2="2946.54" style="stroke:#F0F0F0;stroke-width:9.72"/>
	<line x1="2909.25" y1="2946.54" x2="2974.05" y2="2946.54" style="stroke:#F0F0F0;stroke-width:9.72"/>
	<line x1="3006.45" y1="2946.54" x2="3071.25" y2="2946.54" style="stroke:#F0F0F0;stroke-width:9.72"/>
	<line x1="3103.65" y1="2946.54" x2="3168.45" y2="2946.54" style="stroke:#F0F0F0;stroke-width:9.72"/>
	<line x1="3200.85" y1="2946.54" x2="3265.65" y2="2946.54" style="stroke:#F0F0F0;stroke-width:9.72"/>
	<line x1="3298.05" y1="2946.54" x2="3362.85" y2="2946.54" style="stroke:#F0F0F0;stroke-width:9.72"/>
	<line x1="3395.25" y1="2946.54" x2="3460.05" y2="2946.54" style="stroke:#F0F0F0;stroke-width:9.72"/>
	<line x1="3492.45" y1="2946.54" x2="3557.25" y2="2946.54" style="stroke:#F0F0F0;stroke-width:9.72"/>
	<line x1="3589.65" y1="2946.54" x2="3654.45" y2="2946.54" style="stroke:#F0F0F0;stroke-width:9.72"/>
	<line x1="3686.85" y1="2946.54" x2="3751.65" y2="2946.54" style="stroke:#F0F0F0;stroke-width:9.72"/>
	<line x1="3784.05" y1="2946.54" x2="3848.85" y2="2946.54" style="stroke:#F0F0F0;stroke-width:9.72"/>
	<line x1="3881.25" y1="2946.54" x2="3946.05" y2="2946.54" style="stroke:#F0F0F0;stroke-width:9.72"/>
	<line x1="3978.45" y1="2946.54" x2="4043.25" y2="2946.54" style="stroke:#F0F0F0;stroke-width:9.72"/>
	<line x1="4075.65" y1="2946.54" x2="4140.45" y2="2946.54" style="stroke:#F0F0F0;stroke-width:9.72"/>
	<line x1="4172.85" y1="2946.54" x2="4237.65" y2="2946.54" style="stroke:#F0F0F0;stroke-width:9.72"/>
	<line x1="4270.05" y1="2946.54" x2="4292.83" y2="2946.54" style="stroke:#F0F0F0;stroke-width:9.72"/>
	<line x1="576.45" y1="2094.69" x2="641.25" y2="2094.69" style="stroke:#F0F0F0;stroke-width:9.72"/>
	<line x1="673.65" y1="2094.69" x2="738.45" y2="2094.69" style="stroke:#F0F0F0;stroke-width:9.72"/>
	<line x1="770.85" y1="2094.69" x2="835.65" y2="2094.69" style="stroke:#F0F0F0;stroke-width:9.72"/>
	<line x1="868.05" y1="2094.69" x2="932.85" y2="2094.69" style="stroke:#F0F0F0;stroke-width:9.72"/>
	<line x1="965.25" y1="2094.69" x2="1030.05" y2="2094.69" style="stroke:#F0F0F0;stroke-width:9.72"/>
	<line x1="1062.45" y1="2094.69" x2="1127.25" y2="2094.69" style="stroke:#F0F0F0;stroke-width:9.72"/>
	<line x1="1159.65" y1="2094.69" x2="1224.45" y2="2094.69" style="stroke:#F0F0F0;stroke-width:9.72"/>
	<line x1="1256.85" y1="2094.69" x2="1321.65" y2="2094.69" style="stroke:#F0F0F0;stroke-width:9.72"/>
	<line x1="1354.05" y1="2094.69" x2="1418.85" y2="2094.69" style="stroke:#F0F0F0;stroke-width:9.72"/>
	<line x1="1451.25" y1="2094.69" x2="1516.05" y2="2094.69" style="stroke:#F0F0F0;stroke-width:9.72"/>
	<line x1="1548.45" y1="2094.69" x2="1613.25" y2="2094.69" style="stroke:#F0F0F0;stroke-width:9.72"/>
	<line x1="1645.65" y1="2094.69" x2="1710.45" y2="2094.69" style="stroke:#F0F0F0;stroke-width:9.72"/>
	<line x1="1742.85" y1="2094.69" x2="1807.65" y2="2094.69" style="stroke:#F0F0F0;stroke-width:9.72"/>
	<line x1="1840.05" y1="2094.69" x2="1904.85" y2="2094.69" style="stroke:#F0F0F0;stroke-width:9.72"/>
	<line x1="1937.25" y1="2094.69" x2="2002.05" y2="2094.69" style="stroke:#F0F0F0;stroke-width:9.72"/>
	<line x1="2034.45" y1="2094.69" x2="2099.25" y2="2094.69" style="stroke:#F0F0F0;stroke-width:9.72"/>
	<line x1="2131.65" y1="2094.69" x2="2196.45" y2="2094.69" style="stroke:#F0F0F0;stroke-width:9.72"/>
	<line x1="2228.85" y1="2094.69" x2="2293.65" y2="2094.69" style="stroke:#F0F0F0;stroke-width:9.72"/>
	<line x1="2326.05" y1="2094.69" x2="2390.85" y2="2094.69" style="stroke:#F0F0F0;stroke-width:9.72"/>
	<line x1="2423.25" y1="2094.69" x2="2488.05" y2="2094.69" style="stroke:#F0F0F0;stroke-width:9.72"/>
	<line x1="2520.45" y1="2094.69" x2="2585.25" y2="2094.69" style="stroke:#F0F0F0;stroke-width:9.72"/>
	<line x1="2617.65" y1="2094.69" x2="2682.45" y2="2094.69" style="stroke:#F0F0F0;stroke-width:9.72"/>
	<line x1="2714.85" y1="2094.69" x2="2779.65" y2="2094.69" style="stroke:#F0F0F0;stroke-width:9.72"/>
	<line x1="2812.05" y1="2094.69" x2="2876.85" y2="2094.69" style="stroke:#F0F0F0;stroke-width:9.72"/>
	<line x1="2909.25" y1="2094.69" x2="2974.05" y2="2094.69" style="stroke:#F0F0F0;stroke-width:9.72"/>
	<line x1="3006.45" y1="2094.69" x2="3071.25" y2="2094.69" style="stroke:#F0F0F0;stroke-width:9.72"/>
	<line x1="3103.65" y1="2094.69" x2="3168.45" y2="2094.69" style="stroke:#F0F0F0;stroke-width:9.72"/>
	<line x1="3200.85" y1="2094.69" x2="3265.65" y2="2094.69" style="stroke:#F0F0F0;stroke-width:9.72"/>
	<line x1="3298.05" y1="2094.69" x2="3362.85" y2="2094.69" style="stroke:#F0F0F0;stroke-width:9.72"/>
	<line x1="3395.25" y1="2094.69" x2="3460.05" y2="2094.69" style="stroke:#F0F0F0;stroke-width:9.72"/>
	<line x1="3492.45" y1="2094.69" x2="3557.25" y2="2094.69" style="stroke:#F0F0F0;stroke-width:9.72"/>
	<line x1="3589.65" y1="2094.69" x2="3654.45" y2="2094.69" style="stroke:#F0F0F0;stroke-width:9.72"/>
	<line x1="3686.85" y1="2094.69" x2="3751.65" y2="2094.69" style="stroke:#F0F0F0;stroke-width:9.72"/>
	<line x1="3784.05" y1="2094.69" x2="3848.85" y2="2094.69" style="stroke:#F0F0F0;stroke-width:9.72"/>
	<line x1="3881.25" y1="2094.69" x2="3946.05" y2="2094.69" style="stroke:#F0F0F0;stroke-width:9.72"/>
	<line x1="3978.45" y1="2094.69" x2="4043.25" y2="2094.69" style="stroke:#F0F0F0;stroke-width:9.72"/>
	<line x1="4075.65" y1="2094.69" x2="4140.45" y2="2094.69" style="stroke:#F0F0F0;stroke-width:9.72"/>
	<line x1="4172.85" y1="2094.69" x2="4237.65" y2="2094.69" style="stroke:#F0F0F0;stroke-width:9.72"/>
	<line x1="4270.05" y1="2094.69" x2="4292.83" y2="2094.69" style="stroke:#F0F0F0;stroke-width:9.72"/>
	<line x1="576.45" y1="1242.68" x2="641.25" y2="1242.68" style="stroke:#F0F0F0;stroke-width:9.72"/>
	<line x1="673.65" y1="1242.68" x2="738.45" y2="1242.68" style="stroke:#F0F0F0;stroke-width:9.72"/>
	<line x1="770.85" y1="1242.68" x2="835.65" y2="1242.68" style="stroke:#F0F0F0;stroke-width:9.72"/>
	<line x1="868.05" y1="1242.68" x2="932.85" y2="1242.68" style="stroke:#F0F0F0;stroke-width:9.72"/>
	<line x1="965.25" y1="1242.68" x2="1030.05" y2="1242.68" style="stroke:#F0F0F0;stroke-width:9.72"/>
	<line x1="1062.45" y1="1242.68" x2="1127.25" y2="1242.68" style="stroke:#F0F0F0;stroke-width:9.72"/>
	<line x1="1159.65" y1="1242.68" x2="1224.45" y2="1242.68" style="stroke:#F0F0F0;stroke-width:9.72"/>
	<line x1="1256.85" y1="1242.68" x2="1321.65" y2="1242.68" style="stroke:#F0F0F0;stroke-width:9.72"/>
	<line x1="1354.05" y1="1242.68" x2="1418.85" y2="1242.68" style="stroke:#F0F0F0;stroke-width:9.72"/>
	<line x1="1451.25" y1="1242.68" x2="1516.05" y2="1242.68" style="stroke:#F0F0F0;stroke-width:9.72"/>
	<line x1="1548.45" y1="1242.68" x2="1613.25" y2="1242.68" style="stroke:#F0F0F0;stroke-width:9.72"/>
	<line x1="1645.65" y1="1242.68" x2="1710.45" y2="1242.68" style="stroke:#F0F0F0;stroke-width:9.72"/>
	<line x1="1742.85" y1="1242.68" x2="1807.65" y2="1242.68" style="stroke:#F0F0F0;stroke-width:9.72"/>
	<line x1="1840.05" y1="1242.68" x2="1904.85" y2="1242.68" style="stroke:#F0F0F0;stroke-width:9.72"/>
	<line x1="1937.25" y1="1242.68" x2="2002.05" y2="1242.68" style="stroke:#F0F0F0;stroke-width:9.72"/>
	<line x1="2034.45" y1="1242.68" x2="2099.25" y2="1242.68" style="stroke:#F0F0F0;stroke-width:9.72"/>
	<line x1="2131.65" y1="1242.68" x2="2196.45" y2="1242.68" style="stroke:#F0F0F0;stroke-width:9.72"/>
	<line x1="2228.85" y1="1242.68" x2="2293.65" y2="1242.68" style="stroke:#F0F0F0;stroke-width:9.72"/>
	<line x1="2326.05" y1="1242.68" x2="2390.85" y2="1242.68" style="stroke:#F0F0F0;stroke-width:9.72"/>
	<line x1="2423.25" y1="1242.68" x2="2488.05" y2="1242.68" style="stroke:#F0F0F0;stroke-width:9.72"/>
	<line x1="2520.45" y1="1242.68" x2="2585.25" y2="1242.68" style="stroke:#F0F0F0;stroke-width:9.72"/>
	<line x1="2617.65" y1="1242.68" x2="2682.45" y2="1242.68" style="stroke:#F0F0F0;stroke-width:9.72"/>
	<line x1="2714.85" y1="1242.68" x2="2779.65" y2="1242.68" style="stroke:#F0F0F0;stroke-width:9.72"/>
	<line x1="2812.05" y1="1242.68" x2="2876.85" y2="1242.68" style="stroke:#F0F0F0;stroke-width:9.72"/>
	<line x1="2909.25" y1="1242.68" x2="2974.05" y2="1242.68" style="stroke:#F0F0F0;stroke-width:9.72"/>
	<line x1="3006.45" y1="1242.68" x2="3071.25" y2="1242.68" style="stroke:#F0F0F0;stroke-width:9.72"/>
	<line x1="3103.65" y1="1242.68" x2="3168.45" y2="1242.68" style="stroke:#F0F0F0;stroke-width:9.72"/>
	<line x1="3200.85" y1="1242.68" x2="3265.65" y2="1242.68" style="stroke:#F0F0F0;stroke-width:9.72"/>
	<line x1="3298.05" y1="1242.68" x2="3362.85" y2="1242.68" style="stroke:#F0F0F0;stroke-width:9.72"/>
	<line x1="3395.25" y1="1242.68" x2="3460.05" y2="1242.68" style="stroke:#F0F0F0;stroke-width:9.72"/>
	<line x1="3492.45" y1="1242.68" x2="3557.25" y2="1242.68" style="stroke:#F0F0F0;stroke-width:9.72"/>
	<line x1="3589.65" y1="1242.68" x2="3654.45" y2="1242.68" style="stroke:#F0F0F0;stroke-width:9.72"/>
	<line x1="3686.85" y1="1242.68" x2="3751.65" y2="1242.68" style="stroke:#F0F0F0;stroke-width:9.72"/>
	<line x1="3784.05" y1="1242.68" x2="3848.85" y2="1242.68" style="stroke:#F0F0F0;stroke-width:9.72"/>
	<line x1="3881.25" y1="1242.68" x2="3946.05" y2="1242.68" style="stroke:#F0F0F0;stroke-width:9.72"/>
	<line x1="3978.45" y1="1242.68" x2="4043.25" y2="1242.68" style="stroke:#F0F0F0;stroke-width:9.72"/>
	<line x1="4075.65" y1="1242.68" x2="4140.45" y2="1242.68" style="stroke:#F0F0F0;stroke-width:9.72"/>
	<line x1="4172.85" y1="1242.68" x2="4237.65" y2="1242.68" style="stroke:#F0F0F0;stroke-width:9.72"/>
	<line x1="4270.05" y1="1242.68" x2="4292.83" y2="1242.68" style="stroke:#F0F0F0;stroke-width:9.72"/>
	<line x1="576.45" y1="390.66" x2="641.25" y2="390.66" style="stroke:#F0F0F0;stroke-width:9.72"/>
	<line x1="673.65" y1="390.66" x2="738.45" y2="390.66" style="stroke:#F0F0F0;stroke-width:9.72"/>
	<line x1="770.85" y1="390.66" x2="835.65" y2="390.66" style="stroke:#F0F0F0;stroke-width:9.72"/>
	<line x1="868.05" y1="390.66" x2="932.85" y2="390.66" style="stroke:#F0F0F0;stroke-width:9.72"/>
	<line x1="965.25" y1="390.66" x2="1030.05" y2="390.66" style="stroke:#F0F0F0;stroke-width:9.72"/>
	<line x1="1062.45" y1="390.66" x2="1127.25" y2="390.66" style="stroke:#F0F0F0;stroke-width:9.72"/>
	<line x1="1159.65" y1="390.66" x2="1224.45" y2="390.66" style="stroke:#F0F0F0;stroke-width:9.72"/>
	<line x1="1256.85" y1="390.66" x2="1321.65" y2="390.66" style="stroke:#F0F0F0;stroke-width:9.72"/>
	<line x1="1354.05" y1="390.66" x2="1418.85" y2="390.66" style="stroke:#F0F0F0;stroke-width:9.72"/>
	<line x1="1451.25" y1="390.66" x2="1516.05" y2="390.66" style="stroke:#F0F0F0;stroke-width:9.72"/>
	<line x1="1548.45" y1="390.66" x2="1613.25" y2="390.66" style="stroke:#F0F0F0;stroke-width:9.72"/>
	<line x1="1645.65" y1="390.66" x2="1710.45" y2="390.66" style="stroke:#F0F0F0;stroke-width:9.72"/>
	<line x1="1742.85" y1="390.66" x2="1807.65" y2="390.66" style="stroke:#F0F0F0;stroke-width:9.72"/>
	<line x1="1840.05" y1="390.66" x2="1904.85" y2="390.66" style="stroke:#F0F0F0;stroke-width:9.72"/>
	<line x1="1937.25" y1="390.66" x2="2002.05" y2="390.66" style="stroke:#F0F0F0;stroke-width:9.72"/>
	<line x1="2034.45" y1="390.66" x2="2099.25" y2="390.66" style="stroke:#F0F0F0;stroke-width:9.72"/>
	<line x1="2131.65" y1="390.66" x2="2196.45" y2="390.66" style="stroke:#F0F0F0;stroke-width:9.72"/>
	<line x1="2228.85" y1="390.66" x2="2293.65" y2="390.66" style="stroke:#F0F0F0;stroke-width:9.72"/>
	<line x1="2326.05" y1="390.66" x2="2390.85" y2="390.66" style="stroke:#F0F0F0;stroke-width:9.72"/>
	<line x1="2423.25" y1="390.66" x2="2488.05" y2="390.66" style="stroke:#F0F0F0;stroke-width:9.72"/>
	<line x1="2520.45" y1="390.66" x2="2585.25" y2="390.66" style="stroke:#F0F0F0;stroke-width:9.72"/>
	<line x1="2617.65" y1="390.66" x2="2682.45" y2="390.66" style="stroke:#F0F0F0;stroke-width:9.72"/>
	<line x1="2714.85" y1="390.66" x2="2779.65" y2="390.66" style="stroke:#F0F0F0;stroke-width:9.72"/>
	<line x1="2812.05" y1="390.66" x2="2876.85" y2="390.66" style="stroke:#F0F0F0;stroke-width:9.72"/>
	<line x1="2909.25" y1="390.66" x2="2974.05" y2="390.66" style="stroke:#F0F0F0;stroke-width:9.72"/>
	<line x1="3006.45" y1="390.66" x2="3071.25" y2="390.66" style="stroke:#F0F0F0;stroke-width:9.72"/>
	<line x1="3103.65" y1="390.66" x2="3168.45" y2="390.66" style="stroke:#F0F0F0;stroke-width:9.72"/>
	<line x1="3200.85" y1="390.66" x2="3265.65" y2="390.66" style="stroke:#F0F0F0;stroke-width:9.72"/>
	<line x1="3298.05" y1="390.66" x2="3362.85" y2="390.66" style="stroke:#F0F0F0;stroke-width:9.72"/>
	<line x1="3395.25" y1="390.66" x2="3460.05" y2="390.66" style="stroke:#F0F0F0;stroke-width:9.72"/>
	<line x1="3492.45" y1="390.66" x2="3557.25" y2="390.66" style="stroke:#F0F0F0;stroke-width:9.72"/>
	<line x1="3589.65" y1="390.66" x2="3654.45" y2="390.66" style="stroke:#F0F0F0;stroke-width:9.72"/>
	<line x1="3686.85" y1="390.66" x2="3751.65" y2="390.66" style="stroke:#F0F0F0;stroke-width:9.72"/>
	<line x1="3784.05" y1="390.66" x2="3848.85" y2="390.66" style="stroke:#F0F0F0;stroke-width:9.72"/>
	<line x1="3881.25" y1="390.66" x2="3946.05" y2="390.66" style="stroke:#F0F0F0;stroke-width:9.72"/>
	<line x1="3978.45" y1="390.66" x2="4043.25" y2="390.66" style="stroke:#F0F0F0;stroke-width:9.72"/>
	<line x1="4075.65" y1="390.66" x2="4140.45" y2="390.66" style="stroke:#F0F0F0;stroke-width:9.72"/>
	<line x1="4172.85" y1="390.66" x2="4237.65" y2="390.66" style="stroke:#F0F0F0;stroke-width:9.72"/>
	<line x1="4270.05" y1="390.66" x2="4292.83" y2="390.66" style="stroke:#F0F0F0;stroke-width:9.72"/>
	<rect x="780.13" y="359.78" width="450.73" height="2586.77" style="fill:#1A85FF"/>
	<rect x="783.37" y="363.02" width="444.25" height="2580.29" style="fill:none;stroke:#1A85FF;stroke-width:6.48"/>
	<rect x="1230.86" y="226.80" width="450.90" height="2719.74" style="fill:#D41159"/>
	<rect x="1234.10" y="230.04" width="444.42" height="2713.26" style="fill:none;stroke:#D41159;stroke-width:6.48"/>
	<rect x="1983.83" y="1533.60" width="450.73" height="1412.94" style="fill:#1A85FF"/>
	<rect x="1987.07" y="1536.84" width="444.25" height="1406.46" style="fill:none;stroke:#1A85FF;stroke-width:6.48"/>
	<rect x="2434.56" y="1960.03" width="450.90" height="986.51" style="fill:#D41159"/>
	<rect x="2437.80" y="1963.27" width="444.42" height="980.03" style="fill:none;stroke:#D41159;stroke-width:6.48"/>
	<rect x="3187.52" y="2863.01" width="450.90" height="83.53" style="fill:#1A85FF"/>
	<rect x="3190.76" y="2866.25" width="444.42" height="77.05" style="fill:none;stroke:#1A85FF;stroke-width:6.48"/>
	<rect x="3638.42" y="2874.83" width="450.73" height="71.72" style="fill:#D41159"/>
	<rect x="3641.66" y="2878.06" width="444.25" height="65.24" style="fill:none;stroke:#D41159;stroke-width:6.48"/>
	<line x1="576.45" y1="2946.54" x2="576.45" y2="113.40" style="stroke:#000000;stroke-width:6.48"/>
	<line x1="576.45" y1="2946.54" x2="531.56" y2="2946.54" style="stroke:#000000;stroke-width:6.48"/>
	<text x="508.95" y="2985.98" style="font-family:'Helvetica';font-size:112.56px;fill:#000000" text-anchor="end">0</text>
	<line x1="576.45" y1="2094.69" x2="531.56" y2="2094.69" style="stroke:#000000;stroke-width:6.48"/>
	<text x="508.95" y="2134.13" style="font-family:'Helvetica';font-size:112.56px;fill:#000000" text-anchor="end">2,000</text>
	<line x1="576.45" y1="1242.68" x2="531.56" y2="1242.68" style="stroke:#000000;stroke-width:6.48"/>
	<text x="508.95" y="1282.11" style="font-family:'Helvetica';font-size:112.56px;fill:#000000" text-anchor="end">4,000</text>
	<line x1="576.45" y1="390.66" x2="531.56" y2="390.66" style="stroke:#000000;stroke-width:6.48"/>
	<text x="508.95" y="430.09" style="font-family:'Helvetica';font-size:112.56px;fill:#000000" text-anchor="end">6,000</text>
	<line x1="576.45" y1="2946.54" x2="4292.83" y2="2946.54" style="stroke:#000000;stroke-width:6.48"/>
	<text x="1230.86" y="3070.31" style="font-family:'Helvetica';font-size:112.56px;fill:#000000" text-anchor="middle">mean of price</text>
	<text x="2434.56" y="3070.31" style="font-family:'Helvetica';font-size:112.56px;fill:#000000" text-anchor="middle">mean of weight</text>
	<text x="3638.42" y="3070.31" style="font-family:'Helvetica';font-size:112.56px;fill:#000000" text-anchor="middle">mean of length</text>
	<rect x="4331.64" y="1346.46" width="916.14" height="367.20" style="fill:#FFFFFF"/>
	<rect x="4334.88" y="1349.70" width="909.66" height="360.72" style="fill:none;stroke:#FFFFFF;stroke-width:6.48"/>
	<rect x="4380.24" y="1395.06" width="259.20" height="112.39" style="fill:#1A85FF"/>
	<rect x="4383.48" y="1398.30" width="252.72" height="105.91" style="fill:none;stroke:#1A85FF;stroke-width:6.48"/>
	<rect x="4380.24" y="1552.50" width="259.20" height="112.56" style="fill:#D41159"/>
	<rect x="4383.48" y="1555.74" width="252.72" height="106.08" style="fill:none;stroke:#D41159;stroke-width:6.48"/>
	<text x="4706.94" y="1490.69" style="font-family:'Helvetica';font-size:112.56px;fill:#000000">Domestic</text>
	<text x="4706.94" y="1648.13" style="font-family:'Helvetica';font-size:112.56px;fill:#000000">Foreign</text>
</svg>
